<svg xmlns="http://www.w3.org/2000/svg" width="460" height="210" viewBox="0 0 460 210" role="img" aria-label="pr-review-skill: Reviews Spring Boot PRs like a senior engineer: missing tests, ignored errors, slow queries, time zones.">
  <style>.m{font-family:'JetBrains Mono','SF Mono','Fira Code',Menlo,Consolas,'Liberation Mono',monospace}.s{font-family:-apple-system,BlinkMacSystemFont,'Segoe UI',Helvetica,Arial,sans-serif}</style>
  <defs>
    <linearGradient id="glow" x1="0" y1="0" x2="1" y2="1"><stop offset="0" stop-color="#bc8cff" stop-opacity=".16"/><stop offset=".55" stop-color="#bc8cff" stop-opacity="0"/></linearGradient>
    <pattern id="scan" width="3" height="3" patternUnits="userSpaceOnUse"><rect width="3" height="1" fill="#000" opacity=".35"/></pattern>
    <clipPath id="clip"><rect x="1" y="1" width="458" height="208" rx="14"/></clipPath>
  </defs>
  <g clip-path="url(#clip)">
    <rect x="1" y="1" width="458" height="208" rx="14" fill="#0d1117"/>
    <rect x="1" y="1" width="458" height="208" rx="14" fill="url(#glow)"/>
    <rect x="1" y="1" width="5" height="208" fill="#bc8cff"/>
    
  </g>
  <rect x="1" y="1" width="458" height="208" rx="14" fill="none" stroke="#30363d"/>
  <text x="28" y="40" class="m" fill="#bc8cff" style="font-size:11px;letter-spacing:1.5px">AGENT SKILL · FROM MY DEVFEST TALK</text>
  <text x="28" y="78" class="s" fill="#e6edf3" style="font-size:26px;font-weight:800">pr-review-skill</text>
  <text x="28" y="110" class="s" fill="#8b949e" style="font-size:14px">Reviews Spring Boot PRs like a senior engineer:</text>
  <text x="28" y="132" class="s" fill="#8b949e" style="font-size:14px">missing tests, ignored errors, slow queries, time zones.</text>
  <rect x="28" y="160" width="103" height="26" rx="13" fill="#bc8cff" fill-opacity=".12" stroke="#bc8cff" stroke-opacity=".45"/><text x="80" y="177" text-anchor="middle" class="m" fill="#bc8cff" style="font-size:12px">Claude Code</text><rect x="139.4" y="160" width="111" height="26" rx="13" fill="#bc8cff" fill-opacity=".12" stroke="#bc8cff" stroke-opacity=".45"/><text x="195" y="177" text-anchor="middle" class="m" fill="#bc8cff" style="font-size:12px">Agent Skills</text><rect x="258.20000000000005" y="160" width="103" height="26" rx="13" fill="#bc8cff" fill-opacity=".12" stroke="#bc8cff" stroke-opacity=".45"/><text x="310" y="177" text-anchor="middle" class="m" fill="#bc8cff" style="font-size:12px">Spring Boot</text>
  <text x="434" y="40" text-anchor="end" class="m" fill="#8b949e" style="font-size:16px">↗</text>
</svg>
